<svg xmlns="http://www.w3.org/2000/svg" viewBox="0 0 200 60" fill="none">
  <!-- Circular B mark -->
  <circle cx="28" cy="30" r="28" fill="#0F172A"/>

  <!-- B letterform — white -->
  <rect x="14" y="12" width="6" height="36" rx="1.5" fill="white"/>
  <rect x="14" y="12" width="12" height="6" rx="1" fill="white"/>
  <path d="M24 12 C34 12 40 17 40 23 C40 29 34 33 24 33 L20 33 L20 12 Z" fill="white"/>
  <rect x="14" y="33" width="12" height="7" fill="white"/>
  <path d="M24 30 C36 30 42 36 42 42 C42 48 36 54 24 54 L20 54 L20 30 Z" fill="white"/>
  <rect x="14" y="42" width="12" height="6" rx="1" fill="white"/>

  <!-- Yellow accent curves -->
  <path d="M39 15 C46 18 50 23 50 28 C50 33 46 36 40 37" stroke="#FFCC00" stroke-width="2.5" fill="none" stroke-linecap="round"/>
  <path d="M40 33 C48 35 53 40 53 45 C53 50 48 54 42 55" stroke="#FFCC00" stroke-width="2.5" fill="none" stroke-linecap="round"/>

  <!-- Cursor arrow -->
  <g transform="translate(20, 20)">
    <polygon points="0,0 0,10 3,8 5,12 6.5,11 4.5,7 7,6" fill="#FFCC00"/>
  </g>

  <!-- Sparkle dots -->
  <circle cx="42" cy="16" r="1.2" fill="#FFCC00"/>
  <circle cx="46" cy="20" r="0.9" fill="#FFCC00"/>

  <!-- Text -->
  <text x="64" y="38" font-family="Plus Jakarta Sans, Inter, Arial, sans-serif" font-size="22" font-weight="700" fill="#0F172A">bisnisku.info</text>
</svg>
